<?xml version="1.0" encoding="UTF-8"?>
<svg xmlns="http://www.w3.org/2000/svg" xmlns:xlink="http://www.w3.org/1999/xlink" width="375pt" height="374.999991pt" viewBox="0 0 375 374.999991" version="1.2">
<defs>
<clipPath id="clip1">
  <path d="M 117 112.5 L 257 112.5 L 257 262.5 L 117 262.5 Z M 117 112.5 "/>
</clipPath>
</defs>
<g id="surface1">
<path style=" stroke:none;fill-rule:nonzero;fill:rgb(87.449646%,70.979309%,74.899292%);fill-opacity:1;" d="M 229.289062 212.738281 C 231.3125 212.734375 233.335938 212.992188 235.292969 213.5 C 234.613281 211.550781 235.589844 209.164062 237.441406 208.257812 C 239.296875 207.347656 241.777344 208.039062 242.894531 209.777344 C 244.246094 211.871094 243.542969 214.625 242.777344 217 C 242.273438 218.558594 241.695312 220.207031 240.398438 221.203125 C 239.21875 222.113281 237.652344 222.308594 236.164062 222.382812 C 233.886719 222.496094 231.550781 222.390625 229.433594 221.554688 C 227.3125 220.722656 225.421875 219.066406 224.757812 216.886719 C 224.59375 216.34375 224.503906 215.765625 224.625 215.210938 C 225.027344 213.34375 227.378906 212.738281 229.289062 212.738281 "/>
<g clip-path="url(#clip1)" clip-rule="nonzero">
<path style=" stroke:none;fill-rule:nonzero;fill:rgb(65.098572%,46.669006%,38.038635%);fill-opacity:1;" d="M 164.015625 252.722656 C 164.078125 248.480469 168.925781 245.988281 172.46875 245.144531 C 177.105469 245.199219 181.71875 245.707031 186.351562 245.804688 C 182.683594 251.292969 177.089844 256.445312 170.898438 258.78125 C 166.691406 260.375 163.960938 256.488281 164.015625 252.722656 Z M 196.082031 220.769531 C 194.71875 204.367188 183.804688 192.347656 169.789062 185.003906 C 155.816406 177.683594 139.582031 174.101562 127.835938 162.996094 C 121.640625 157.136719 117.179688 146.875 123.335938 139.351562 C 125.085938 137.214844 127.648438 135.972656 130.335938 135.578125 C 130.5625 135.621094 130.816406 135.609375 131.09375 135.515625 C 131.125 135.507812 131.15625 135.496094 131.1875 135.484375 C 132.457031 135.386719 133.738281 135.464844 134.960938 135.734375 C 138.679688 136.554688 142.320312 140.933594 140.417969 144.671875 C 140.175781 144.902344 140.046875 145.207031 140.027344 145.535156 C 139.785156 146.535156 140.675781 147.378906 141.613281 147.421875 C 141.746094 147.433594 141.890625 147.433594 142.039062 147.40625 C 160.789062 144.277344 180.371094 142.058594 198 134.574219 C 201.191406 142.082031 208.203125 146.402344 215.042969 150.21875 C 223.550781 154.964844 231.542969 160.066406 238.441406 167.042969 C 253.355469 182.117188 257.183594 206.1875 249 225.660156 C 227.4375 238.382812 204.820312 250.125 180.597656 256.738281 C 191.3125 248.292969 197.214844 234.40625 196.082031 220.769531 Z M 204.535156 118.574219 C 206.324219 120.453125 208.300781 126.660156 204.703125 127.808594 C 204.6875 127.8125 204.675781 127.824219 204.660156 127.828125 C 204.550781 127.863281 204.433594 127.910156 204.320312 127.972656 C 185.914062 137.996094 164.527344 140.527344 144.089844 143.828125 C 144.820312 139.523438 141.617188 135.320312 137.660156 133.332031 C 156.113281 127.203125 174.59375 121.164062 193.390625 116.144531 C 197.296875 115.855469 201.605469 115.496094 204.535156 118.574219 Z M 251.582031 227.710938 C 251.6875 227.558594 251.753906 227.398438 251.796875 227.230469 C 259.652344 208.511719 257.441406 185.410156 244.792969 169.363281 C 238.726562 161.664062 230.628906 155.457031 222.214844 150.539062 C 214.324219 145.925781 204.882812 142.125 200.925781 133.269531 C 202.597656 132.492188 204.25 131.667969 205.878906 130.785156 C 210.40625 129.0625 210.585938 123.078125 208.703125 119.214844 C 205.621094 112.886719 199.375 112.488281 193.09375 112.945312 C 193.089844 112.945312 193.089844 112.949219 193.085938 112.949219 C 192.953125 112.949219 192.8125 112.964844 192.664062 113.003906 C 171.910156 118.542969 151.546875 125.324219 131.175781 132.101562 C 126.304688 132.507812 121.628906 135.613281 119.1875 139.738281 C 115.183594 146.503906 117.605469 155.085938 121.855469 161.03125 C 126.328125 167.285156 133.195312 171.664062 139.910156 175.148438 C 153.734375 182.328125 169.75 185.917969 181.351562 196.875 C 193.984375 208.808594 196.242188 228 188.117188 242.882812 C 187.882812 242.71875 187.585938 242.609375 187.222656 242.609375 C 182.238281 242.558594 177.277344 241.96875 172.292969 241.921875 C 172.109375 241.917969 171.949219 241.949219 171.796875 241.996094 C 165.359375 243.441406 159.738281 248.5 161.070312 255.5625 C 161.585938 258.292969 163.648438 260.703125 166.132812 261.8125 C 167.476562 262.414062 168.859375 262.480469 170.222656 262.242188 C 170.492188 262.347656 170.804688 262.386719 171.152344 262.3125 C 199.566406 256.449219 225.832031 243.066406 250.644531 228.421875 C 251.015625 228.371094 251.355469 228.148438 251.582031 227.710938 "/>
</g>
<path style=" stroke:none;fill-rule:nonzero;fill:rgb(65.098572%,46.669006%,38.038635%);fill-opacity:1;" d="M 197.066406 150.671875 C 198.484375 149.164062 196.21875 146.882812 194.792969 148.398438 C 190.046875 153.449219 185.027344 158.511719 177.707031 158.886719 C 171.542969 159.207031 165.488281 159.050781 162.589844 165.566406 C 161.753906 167.445312 164.523438 169.082031 165.363281 167.191406 C 168.574219 159.976562 177.078125 163.085938 183.21875 161.183594 C 188.808594 159.453125 193.179688 154.808594 197.066406 150.671875 "/>
<path style=" stroke:none;fill-rule:nonzero;fill:rgb(65.098572%,46.669006%,38.038635%);fill-opacity:1;" d="M 208.8125 161.152344 C 209.921875 159.390625 207.140625 157.777344 206.039062 159.527344 C 202.042969 165.894531 195.867188 168.109375 188.65625 168.546875 C 182.945312 168.894531 177.011719 169.363281 172.898438 173.832031 C 171.496094 175.355469 173.761719 177.632812 175.167969 176.105469 C 180.078125 170.777344 188.214844 172.210938 194.703125 171.113281 C 200.609375 170.113281 205.683594 166.140625 208.8125 161.152344 "/>
<path style=" stroke:none;fill-rule:nonzero;fill:rgb(65.098572%,46.669006%,38.038635%);fill-opacity:1;" d="M 208.921875 181.347656 C 214.519531 179.554688 218.835938 174.761719 222.617188 170.507812 C 223.992188 168.964844 221.726562 166.679688 220.347656 168.234375 C 215.839844 173.296875 210.816406 178.761719 203.582031 179.039062 C 200.367188 179.160156 197.292969 178.601562 194.246094 179.996094 C 191.546875 181.230469 189.503906 183.074219 187.953125 185.601562 C 186.863281 187.375 189.644531 188.988281 190.726562 187.226562 C 192.867188 183.734375 196.121094 182.191406 200.144531 182.15625 C 203.222656 182.132812 205.949219 182.300781 208.921875 181.347656 "/>
<path style=" stroke:none;fill-rule:nonzero;fill:rgb(65.098572%,46.669006%,38.038635%);fill-opacity:1;" d="M 216.164062 191.171875 C 209.769531 190.65625 204.296875 190.234375 199.710938 195.535156 C 198.359375 197.097656 200.621094 199.382812 201.980469 197.8125 C 204.621094 194.761719 207.816406 193.703125 211.78125 193.90625 C 214.832031 194.066406 217.890625 194.929688 220.949219 194.292969 C 226.695312 193.105469 230.574219 188.730469 234.089844 184.335938 C 235.371094 182.730469 233.113281 180.441406 231.816406 182.058594 C 227.597656 187.335938 223.421875 191.753906 216.164062 191.171875 "/>
<path style=" stroke:none;fill-rule:nonzero;fill:rgb(65.098572%,46.669006%,38.038635%);fill-opacity:1;" d="M 235.246094 212.492188 C 235.699219 212.785156 236.132812 212.601562 236.371094 212.246094 C 236.5 212.101562 236.59375 211.910156 236.605469 211.671875 C 236.730469 209.738281 238.070312 207.457031 239.925781 206.734375 C 241.960938 205.941406 243.9375 208.164062 244.511719 209.847656 C 246.03125 214.292969 242.882812 220.109375 239.199219 222.457031 C 239.136719 222.496094 239.085938 222.539062 239.039062 222.582031 C 234.363281 222.886719 228.734375 223.027344 226.144531 218.332031 C 224.832031 215.953125 226.132812 213.210938 228.207031 211.828125 C 230.296875 210.4375 233.011719 211.03125 234.972656 212.316406 C 235.050781 212.390625 235.144531 212.453125 235.246094 212.492188 Z M 223.8125 216.796875 C 223.992188 219.691406 226.304688 221.988281 228.726562 223.265625 C 231.902344 224.941406 235.808594 224.65625 239.257812 224.425781 C 239.496094 224.410156 239.6875 224.320312 239.832031 224.1875 C 239.929688 224.167969 240.03125 224.128906 240.132812 224.0625 C 243.066406 222.195312 244.863281 219.429688 245.964844 216.175781 C 246.902344 213.402344 247.128906 209.625 245.199219 207.210938 C 243.738281 205.382812 241.066406 203.953125 238.773438 205.203125 C 236.910156 206.222656 235.539062 208.125 234.992188 210.191406 C 230.066406 207.800781 223.417969 210.5625 223.8125 216.796875 "/>
</g>
</svg>
