<?xml version="1.0" encoding="UTF-8"?>
<svg xmlns="http://www.w3.org/2000/svg" xmlns:xlink="http://www.w3.org/1999/xlink" width="375pt" height="374.999991pt" viewBox="0 0 375 374.999991" version="1.2">
<defs>
<clipPath id="clip1">
  <path d="M 128 129 L 302 129 L 302 302.027344 L 128 302.027344 Z M 128 129 "/>
</clipPath>
<clipPath id="clip2">
  <path d="M 92 73.277344 L 181 73.277344 L 181 148 L 92 148 Z M 92 73.277344 "/>
</clipPath>
<clipPath id="clip3">
  <path d="M 286 137 L 326.761719 137 L 326.761719 148 L 286 148 Z M 286 137 "/>
</clipPath>
</defs>
<g id="surface1">
<path style=" stroke:none;fill-rule:nonzero;fill:rgb(100%,100%,100%);fill-opacity:1;" d="M 212.652344 133.09375 C 199.402344 133.46875 186.980469 136.964844 176.039062 142.832031 C 169.3125 146.4375 163.144531 150.925781 157.703125 156.167969 C 141.535156 171.75 131.734375 193.828125 132.425781 218.046875 C 133.058594 240.40625 142.527344 260.417969 157.371094 274.878906 C 164.074219 272.542969 170.25 269.117188 175.6875 264.804688 C 161.78125 253.652344 152.667969 236.703125 152.121094 217.488281 C 151.535156 196.859375 160.945312 178.261719 175.960938 166.355469 L 194.277344 156.28125 C 200.222656 154.203125 206.582031 152.988281 213.210938 152.800781 C 247.9375 151.8125 276.890625 179.171875 277.878906 213.914062 C 278.863281 248.648438 251.515625 277.609375 216.789062 278.597656 C 208.773438 278.828125 201.070312 277.523438 193.941406 274.992188 C 188.503906 280.230469 182.332031 284.722656 175.609375 288.324219 C 187.988281 295.058594 202.246094 298.734375 217.347656 298.300781 C 262.953125 297.003906 298.875 258.972656 297.578125 213.351562 C 296.28125 167.730469 258.257812 131.796875 212.652344 133.09375 Z M 212.652344 133.09375 "/>
<g clip-path="url(#clip1)" clip-rule="nonzero">
<path style=" stroke:none;fill-rule:nonzero;fill:rgb(100%,100%,100%);fill-opacity:1;" d="M 214.964844 302.019531 C 214.964844 302.019531 214.964844 302.019531 214.960938 302.019531 C 200.644531 302.019531 186.429688 298.402344 173.851562 291.5625 C 172.660156 290.914062 171.921875 289.667969 171.925781 288.3125 C 171.933594 286.960938 172.675781 285.71875 173.871094 285.078125 C 180.292969 281.636719 186.1875 277.347656 191.390625 272.339844 C 192.394531 271.371094 193.863281 271.054688 195.175781 271.523438 C 202.089844 273.980469 209.3125 275.128906 216.683594 274.917969 C 249.324219 273.988281 275.125 246.667969 274.199219 214.019531 C 273.28125 181.742188 247.292969 156.460938 215.035156 156.460938 C 214.464844 156.460938 213.890625 156.46875 213.320312 156.484375 C 207.320312 156.652344 201.417969 157.722656 195.777344 159.660156 L 178.007812 169.433594 C 163.359375 181.167969 155.269531 198.628906 155.804688 217.386719 C 156.300781 234.785156 164.386719 251.019531 177.992188 261.929688 C 178.867188 262.632812 179.375 263.695312 179.371094 264.8125 C 179.367188 265.933594 178.855469 266.992188 177.976562 267.691406 C 172.140625 272.316406 165.617188 275.90625 158.585938 278.359375 C 157.269531 278.820312 155.804688 278.492188 154.804688 277.519531 C 138.640625 261.773438 129.386719 240.691406 128.746094 218.152344 C 128.058594 193.914062 137.683594 170.355469 155.152344 153.515625 C 160.832031 148.042969 167.273438 143.355469 174.300781 139.585938 C 186.175781 133.222656 199.046875 129.796875 212.550781 129.414062 C 213.386719 129.390625 214.214844 129.378906 215.042969 129.378906 C 237.578125 129.378906 258.90625 138.035156 275.097656 153.753906 C 291.328125 169.507812 300.617188 190.632812 301.257812 213.246094 C 302.609375 260.824219 265.015625 300.632812 217.457031 301.984375 C 216.621094 302.007812 215.792969 302.019531 214.964844 302.019531 Z M 183.367188 288.027344 C 193.300781 292.375 204.097656 294.652344 214.960938 294.652344 C 214.964844 294.652344 214.964844 294.652344 214.964844 294.652344 C 215.722656 294.652344 216.480469 294.640625 217.242188 294.621094 C 260.746094 293.382812 295.132812 256.972656 293.898438 213.457031 C 292.652344 169.679688 256.796875 135.503906 212.757812 136.773438 C 200.40625 137.125 188.636719 140.257812 177.777344 146.078125 C 171.347656 149.527344 165.453125 153.8125 160.261719 158.820312 C 144.28125 174.222656 135.476562 195.769531 136.105469 217.941406 C 136.671875 237.785156 144.535156 256.394531 158.3125 270.605469 C 162.351562 269.019531 166.191406 266.996094 169.78125 264.570312 C 156.667969 252.4375 148.953125 235.566406 148.441406 217.59375 C 147.839844 196.390625 157.035156 176.664062 173.671875 163.46875 C 173.832031 163.34375 174.003906 163.230469 174.1875 163.128906 L 192.503906 153.054688 C 192.683594 152.953125 192.871094 152.871094 193.0625 152.800781 C 199.503906 150.554688 206.25 149.316406 213.109375 149.121094 C 231.210938 148.632812 248.417969 155.328125 261.375 167.902344 C 273.894531 180.054688 281.0625 196.359375 281.558594 213.808594 C 282.601562 250.519531 253.589844 281.234375 216.890625 282.28125 C 209.363281 282.488281 201.976562 281.449219 194.855469 279.183594 C 191.289062 282.441406 187.445312 285.402344 183.367188 288.027344 Z M 183.367188 288.027344 "/>
</g>
<path style=" stroke:none;fill-rule:nonzero;fill:rgb(100%,100%,100%);fill-opacity:1;" d="M 194.277344 156.277344 C 187.574219 158.613281 181.398438 162.042969 175.960938 166.355469 C 189.867188 177.507812 198.980469 194.457031 199.527344 213.671875 C 200.113281 234.300781 190.703125 252.898438 175.6875 264.800781 C 170.25 269.113281 164.074219 272.542969 157.371094 274.878906 C 151.425781 276.953125 145.066406 278.167969 138.433594 278.355469 C 103.710938 279.34375 74.757812 251.988281 73.769531 217.25 C 72.78125 182.511719 100.132812 153.550781 134.859375 152.558594 C 142.875 152.332031 150.574219 153.632812 157.703125 156.167969 C 163.144531 150.925781 169.3125 146.4375 176.039062 142.832031 C 163.65625 136.097656 149.402344 132.425781 134.300781 132.855469 C 88.695312 134.152344 52.777344 172.1875 54.070312 217.808594 C 55.367188 263.429688 93.390625 299.359375 138.992188 298.0625 C 152.246094 297.6875 164.667969 294.191406 175.609375 288.324219 C 182.332031 284.71875 188.503906 280.230469 193.941406 274.988281 C 210.113281 259.410156 219.910156 237.332031 219.222656 213.109375 C 218.589844 190.753906 209.121094 170.738281 194.277344 156.277344 Z M 194.277344 156.277344 "/>
<path style=" stroke:none;fill-rule:nonzero;fill:rgb(100%,100%,100%);fill-opacity:1;" d="M 136.609375 301.78125 C 114.074219 301.78125 92.75 293.121094 76.554688 277.402344 C 60.328125 261.652344 51.035156 240.527344 50.394531 217.914062 C 49.042969 170.335938 86.636719 130.527344 134.195312 129.171875 C 135.027344 129.148438 135.855469 129.136719 136.679688 129.136719 C 151 129.136719 165.21875 132.753906 177.796875 139.59375 C 178.984375 140.242188 179.722656 141.488281 179.71875 142.84375 C 179.714844 144.195312 178.96875 145.4375 177.777344 146.078125 C 171.347656 149.523438 165.453125 153.8125 160.257812 158.820312 C 159.253906 159.789062 157.789062 160.105469 156.472656 159.636719 C 149.558594 157.175781 142.332031 156.035156 134.964844 156.238281 C 102.324219 157.167969 76.523438 184.488281 77.449219 217.140625 C 78.367188 249.417969 104.351562 274.699219 136.609375 274.699219 C 137.179688 274.699219 137.753906 274.6875 138.328125 274.671875 C 144.433594 274.5 150.433594 273.398438 156.160156 271.402344 C 162.410156 269.222656 168.210938 266.03125 173.398438 261.914062 C 188.199219 250.179688 196.382812 232.632812 195.84375 213.773438 C 195.351562 196.375 187.265625 180.136719 173.65625 169.226562 C 172.78125 168.527344 172.273438 167.464844 172.277344 166.34375 C 172.28125 165.222656 172.792969 164.164062 173.671875 163.46875 C 179.511719 158.839844 186.035156 155.25 193.0625 152.800781 C 194.382812 152.339844 195.84375 152.667969 196.84375 153.640625 C 213.007812 169.386719 222.265625 190.46875 222.90625 213.003906 C 223.59375 237.246094 213.96875 260.804688 196.496094 277.640625 C 190.8125 283.121094 184.367188 287.808594 177.347656 291.570312 C 165.472656 297.9375 152.605469 301.359375 139.101562 301.746094 C 138.265625 301.769531 137.4375 301.78125 136.609375 301.78125 Z M 136.679688 136.503906 C 135.925781 136.503906 135.164062 136.515625 134.40625 136.535156 C 90.902344 137.773438 56.519531 174.183594 57.753906 217.703125 C 58.976562 260.71875 93.613281 294.414062 136.605469 294.414062 C 137.367188 294.414062 138.125 294.40625 138.890625 294.382812 C 151.242188 294.03125 163.011719 290.898438 173.871094 285.078125 C 180.292969 281.636719 186.1875 277.347656 191.386719 272.339844 C 207.371094 256.9375 216.175781 235.390625 215.542969 213.21875 C 214.980469 193.375 207.117188 174.761719 193.339844 160.554688 C 189.296875 162.140625 185.457031 164.160156 181.867188 166.589844 C 194.980469 178.722656 202.695312 195.589844 203.207031 213.566406 C 203.808594 234.769531 194.613281 254.496094 177.976562 267.6875 C 172.136719 272.316406 165.617188 275.90625 158.585938 278.355469 C 152.144531 280.605469 145.398438 281.84375 138.539062 282.039062 C 120.414062 282.527344 103.230469 275.832031 90.273438 263.257812 C 77.753906 251.105469 70.585938 234.800781 70.089844 217.351562 C 69.046875 180.640625 98.054688 149.921875 134.753906 148.878906 C 142.289062 148.667969 149.671875 149.710938 156.792969 151.976562 C 160.355469 148.714844 164.199219 145.757812 168.28125 143.128906 C 158.347656 138.78125 147.546875 136.503906 136.679688 136.503906 Z M 136.679688 136.503906 "/>
<path style=" stroke:none;fill-rule:nonzero;fill:rgb(100%,100%,100%);fill-opacity:1;" d="M 156.566406 76.96875 C 145.457031 76.96875 136.445312 84.863281 136.445312 94.597656 C 136.445312 84.863281 127.441406 76.96875 116.332031 76.96875 C 107.019531 76.96875 97.226562 84.753906 96.660156 94.039062 C 95.90625 106.445312 104.964844 118.050781 113.367188 126.125 C 119.390625 131.914062 126.1875 137.289062 133.113281 141.960938 C 133.386719 142.152344 136.035156 144.179688 136.445312 143.953125 C 152.941406 134.707031 176.683594 115.703125 176.683594 94.601562 C 176.683594 84.863281 167.675781 76.96875 156.566406 76.96875 Z M 156.566406 76.96875 "/>
<g clip-path="url(#clip2)" clip-rule="nonzero">
<path style=" stroke:none;fill-rule:nonzero;fill:rgb(100%,100%,100%);fill-opacity:1;" d="M 136.359375 147.652344 C 134.878906 147.652344 133.617188 146.898438 131.167969 145.101562 L 131.003906 144.980469 C 123.613281 140 116.804688 134.535156 110.816406 128.78125 C 98.304688 116.753906 92.308594 104.992188 92.984375 93.816406 C 93.652344 82.878906 104.5625 73.285156 116.332031 73.285156 C 124.785156 73.285156 132.222656 77.253906 136.445312 83.222656 C 140.671875 77.253906 148.109375 73.285156 156.566406 73.285156 C 169.6875 73.285156 180.367188 82.847656 180.367188 94.597656 C 180.367188 115.953125 158.609375 135.753906 138.246094 147.164062 C 137.695312 147.472656 136.992188 147.652344 136.359375 147.652344 Z M 116.332031 80.652344 C 108.535156 80.652344 100.761719 87.265625 100.335938 94.265625 C 99.660156 105.375 108.4375 116.277344 115.917969 123.46875 C 121.519531 128.855469 128.179688 134.191406 135.167969 138.90625 C 135.242188 138.960938 135.359375 139.042969 135.523438 139.164062 C 135.847656 139.402344 136.121094 139.597656 136.351562 139.761719 C 153.628906 129.675781 173 112.210938 173 94.597656 C 173 86.90625 165.628906 80.648438 156.5625 80.648438 C 147.5 80.648438 140.125 86.90625 140.125 94.597656 C 140.125 96.632812 138.476562 98.28125 136.445312 98.28125 C 134.410156 98.28125 132.761719 96.632812 132.761719 94.597656 C 132.761719 86.90625 125.390625 80.652344 116.332031 80.652344 Z M 116.332031 80.652344 "/>
</g>
<path style=" stroke:none;fill-rule:nonzero;fill:rgb(100%,100%,100%);fill-opacity:1;" d="M 147.472656 125.605469 C 144.878906 127.996094 145.042969 127.800781 141.59375 129.996094 "/>
<path style=" stroke:none;fill-rule:nonzero;fill:rgb(100%,100%,100%);fill-opacity:1;" d="M 141.597656 132.628906 C 140.726562 132.628906 139.875 132.199219 139.375 131.410156 C 138.59375 130.183594 138.957031 128.558594 140.183594 127.777344 L 141.171875 127.152344 C 143.546875 125.644531 143.546875 125.644531 145.695312 123.667969 C 146.761719 122.6875 148.425781 122.753906 149.410156 123.824219 C 150.394531 124.894531 150.324219 126.558594 149.253906 127.539062 C 146.820312 129.78125 146.566406 129.960938 143.984375 131.59375 L 143.007812 132.21875 C 142.566406 132.496094 142.078125 132.628906 141.597656 132.628906 Z M 141.597656 132.628906 "/>
<path style=" stroke:none;fill-rule:nonzero;fill:rgb(100%,100%,100%);fill-opacity:1;" d="M 161.53125 108.035156 C 161.53125 108.035156 161.664062 112.921875 153.882812 120.085938 "/>
<path style=" stroke:none;fill-rule:nonzero;fill:rgb(100%,100%,100%);fill-opacity:1;" d="M 153.886719 122.71875 C 153.175781 122.71875 152.46875 122.433594 151.949219 121.867188 C 150.964844 120.800781 151.035156 119.136719 152.101562 118.152344 C 158.675781 112.097656 158.902344 108.066406 158.902344 108.023438 C 158.863281 106.574219 160.007812 105.40625 161.460938 105.367188 C 162.910156 105.339844 164.121094 106.511719 164.160156 107.964844 C 164.175781 108.585938 164.082031 114.269531 155.664062 122.023438 C 155.160156 122.488281 154.523438 122.71875 153.886719 122.71875 Z M 153.886719 122.71875 "/>
<path style=" stroke:none;fill-rule:nonzero;fill:rgb(100%,100%,100%);fill-opacity:1;" d="M 297.164062 112.714844 L 278.640625 134.203125 "/>
<path style=" stroke:none;fill-rule:nonzero;fill:rgb(100%,100%,100%);fill-opacity:1;" d="M 278.640625 137.886719 C 277.789062 137.886719 276.933594 137.59375 276.238281 136.992188 C 274.699219 135.664062 274.527344 133.339844 275.855469 131.800781 L 294.375 110.308594 C 295.707031 108.769531 298.027344 108.597656 299.570312 109.925781 C 301.109375 111.253906 301.28125 113.578125 299.953125 115.117188 L 281.429688 136.609375 C 280.703125 137.453125 279.675781 137.886719 278.640625 137.886719 Z M 278.640625 137.886719 "/>
<path style=" stroke:none;fill-rule:nonzero;fill:rgb(100%,100%,100%);fill-opacity:1;" d="M 265.074219 91.902344 L 267.441406 124.519531 "/>
<path style=" stroke:none;fill-rule:nonzero;fill:rgb(100%,100%,100%);fill-opacity:1;" d="M 267.4375 128.203125 C 265.523438 128.203125 263.910156 126.722656 263.769531 124.785156 L 261.402344 92.167969 C 261.253906 90.140625 262.78125 88.375 264.808594 88.226562 C 266.835938 88.09375 268.597656 89.609375 268.746094 91.636719 L 271.113281 124.253906 C 271.257812 126.28125 269.734375 128.046875 267.707031 128.191406 C 267.613281 128.199219 267.527344 128.203125 267.4375 128.203125 Z M 267.4375 128.203125 "/>
<path style=" stroke:none;fill-rule:nonzero;fill:rgb(100%,100%,100%);fill-opacity:1;" d="M 322.390625 141.476562 L 289.789062 143.84375 "/>
<g clip-path="url(#clip3)" clip-rule="nonzero">
<path style=" stroke:none;fill-rule:nonzero;fill:rgb(100%,100%,100%);fill-opacity:1;" d="M 289.785156 147.527344 C 287.875 147.527344 286.257812 146.050781 286.117188 144.109375 C 285.96875 142.082031 287.496094 140.320312 289.519531 140.171875 L 322.125 137.804688 C 324.132812 137.65625 325.914062 139.183594 326.0625 141.210938 C 326.207031 143.238281 324.683594 145.003906 322.65625 145.152344 L 290.054688 147.519531 C 289.964844 147.523438 289.875 147.527344 289.785156 147.527344 Z M 289.785156 147.527344 "/>
</g>
<path style=" stroke:none;fill-rule:nonzero;fill:rgb(100%,100%,100%);fill-opacity:1;" d="M 134.996094 290.996094 C 123.246094 290.996094 113.195312 287.832031 105.800781 284.449219 C 104.480469 283.84375 103.898438 282.28125 104.503906 280.960938 C 105.109375 279.640625 106.667969 279.058594 107.988281 279.664062 C 118.890625 284.65625 136.03125 289.125 155.769531 282.074219 C 157.136719 281.585938 158.640625 282.300781 159.128906 283.667969 C 159.617188 285.035156 158.90625 286.542969 157.535156 287.03125 C 149.5625 289.878906 141.980469 290.996094 134.996094 290.996094 Z M 134.996094 290.996094 "/>
<path style=" stroke:none;fill-rule:nonzero;fill:rgb(100%,100%,100%);fill-opacity:1;" d="M 100.265625 281.25 C 99.816406 281.25 99.363281 281.136719 98.945312 280.894531 C 91.859375 276.769531 87.78125 272.945312 87.609375 272.785156 C 86.554688 271.789062 86.507812 270.121094 87.503906 269.066406 C 88.5 268.011719 90.164062 267.964844 91.21875 268.957031 C 91.257812 268.996094 95.066406 272.550781 101.589844 276.347656 C 102.84375 277.078125 103.273438 278.6875 102.542969 279.941406 C 102.054688 280.78125 101.171875 281.25 100.265625 281.25 Z M 100.265625 281.25 "/>
</g>
</svg>
